<mxfile host="app.diagrams.net" modified="2022-03-12T05:06:17.975Z" agent="5.0 (Windows NT 10.0; Win64; x64) AppleWebKit/537.36 (KHTML, like Gecko) Chrome/99.0.4844.51 Safari/537.36" etag="idqTG639elSjQfpGk5br" version="17.1.2" type="github" pages="3">
  <diagram id="xUGIGhkVd-j1YPa-RCwH" name="craft">
    <mxGraphModel dx="1207" dy="753" grid="1" gridSize="10" guides="1" tooltips="1" connect="1" arrows="1" fold="1" page="1" pageScale="1" pageWidth="850" pageHeight="1100" math="0" shadow="0">
      <root>
        <mxCell id="0" />
        <mxCell id="1" parent="0" />
        <mxCell id="Qj_qJi0HO7O66n5Au-XE-31" style="edgeStyle=orthogonalEdgeStyle;rounded=0;orthogonalLoop=1;jettySize=auto;html=1;exitX=0.5;exitY=1;exitDx=0;exitDy=0;" edge="1" parent="1" source="w2n7nAu5w1a4aWffRUAA-2">
          <mxGeometry relative="1" as="geometry">
            <mxPoint x="350" y="290" as="targetPoint" />
          </mxGeometry>
        </mxCell>
        <mxCell id="w2n7nAu5w1a4aWffRUAA-2" value="craftItem" style="rounded=1;whiteSpace=wrap;html=1;" vertex="1" parent="1">
          <mxGeometry x="290" y="70" width="120" height="60" as="geometry" />
        </mxCell>
        <mxCell id="Qj_qJi0HO7O66n5Au-XE-28" style="edgeStyle=orthogonalEdgeStyle;rounded=0;orthogonalLoop=1;jettySize=auto;html=1;exitX=0.5;exitY=0;exitDx=0;exitDy=0;exitPerimeter=0;entryX=1;entryY=0.5;entryDx=0;entryDy=0;" edge="1" parent="1" source="Qj_qJi0HO7O66n5Au-XE-1" target="Qj_qJi0HO7O66n5Au-XE-3">
          <mxGeometry relative="1" as="geometry" />
        </mxCell>
        <mxCell id="Qj_qJi0HO7O66n5Au-XE-1" value="recipe db" style="shape=cylinder3;whiteSpace=wrap;html=1;boundedLbl=1;backgroundOutline=1;size=15;" vertex="1" parent="1">
          <mxGeometry x="700" y="250" width="60" height="80" as="geometry" />
        </mxCell>
        <mxCell id="Qj_qJi0HO7O66n5Au-XE-7" style="edgeStyle=orthogonalEdgeStyle;rounded=0;orthogonalLoop=1;jettySize=auto;html=1;exitX=1;exitY=0.5;exitDx=0;exitDy=0;entryX=0.5;entryY=0;entryDx=0;entryDy=0;entryPerimeter=0;" edge="1" parent="1" source="Qj_qJi0HO7O66n5Au-XE-3" target="Qj_qJi0HO7O66n5Au-XE-1">
          <mxGeometry relative="1" as="geometry" />
        </mxCell>
        <mxCell id="Qj_qJi0HO7O66n5Au-XE-12" value="" style="edgeStyle=orthogonalEdgeStyle;rounded=0;orthogonalLoop=1;jettySize=auto;html=1;" edge="1" parent="1" source="Qj_qJi0HO7O66n5Au-XE-11" target="w2n7nAu5w1a4aWffRUAA-2">
          <mxGeometry relative="1" as="geometry" />
        </mxCell>
        <mxCell id="Qj_qJi0HO7O66n5Au-XE-22" style="edgeStyle=orthogonalEdgeStyle;rounded=0;orthogonalLoop=1;jettySize=auto;html=1;exitX=1;exitY=0.75;exitDx=0;exitDy=0;" edge="1" parent="1" source="Qj_qJi0HO7O66n5Au-XE-3" target="Qj_qJi0HO7O66n5Au-XE-21">
          <mxGeometry relative="1" as="geometry" />
        </mxCell>
        <mxCell id="Qj_qJi0HO7O66n5Au-XE-25" style="edgeStyle=orthogonalEdgeStyle;rounded=0;orthogonalLoop=1;jettySize=auto;html=1;exitX=0.75;exitY=1;exitDx=0;exitDy=0;" edge="1" parent="1" source="Qj_qJi0HO7O66n5Au-XE-3" target="Qj_qJi0HO7O66n5Au-XE-24">
          <mxGeometry relative="1" as="geometry" />
        </mxCell>
        <mxCell id="Qj_qJi0HO7O66n5Au-XE-29" style="edgeStyle=orthogonalEdgeStyle;rounded=0;orthogonalLoop=1;jettySize=auto;html=1;exitX=0;exitY=0.5;exitDx=0;exitDy=0;entryX=1;entryY=0.5;entryDx=0;entryDy=0;" edge="1" parent="1" source="Qj_qJi0HO7O66n5Au-XE-3" target="Qj_qJi0HO7O66n5Au-XE-11">
          <mxGeometry relative="1" as="geometry" />
        </mxCell>
        <mxCell id="Qj_qJi0HO7O66n5Au-XE-3" value="dataService" style="rounded=1;whiteSpace=wrap;html=1;" vertex="1" parent="1">
          <mxGeometry x="490" y="340" width="120" height="60" as="geometry" />
        </mxCell>
        <mxCell id="Qj_qJi0HO7O66n5Au-XE-20" style="edgeStyle=orthogonalEdgeStyle;rounded=0;orthogonalLoop=1;jettySize=auto;html=1;exitX=0.25;exitY=1;exitDx=0;exitDy=0;entryX=0.5;entryY=0;entryDx=0;entryDy=0;" edge="1" parent="1" source="Qj_qJi0HO7O66n5Au-XE-11" target="Qj_qJi0HO7O66n5Au-XE-17">
          <mxGeometry relative="1" as="geometry" />
        </mxCell>
        <mxCell id="Qj_qJi0HO7O66n5Au-XE-30" style="edgeStyle=orthogonalEdgeStyle;rounded=0;orthogonalLoop=1;jettySize=auto;html=1;exitX=1;exitY=0.5;exitDx=0;exitDy=0;entryX=0;entryY=0.5;entryDx=0;entryDy=0;" edge="1" parent="1" source="Qj_qJi0HO7O66n5Au-XE-11" target="Qj_qJi0HO7O66n5Au-XE-3">
          <mxGeometry relative="1" as="geometry" />
        </mxCell>
        <mxCell id="Qj_qJi0HO7O66n5Au-XE-11" value="controller" style="rounded=1;whiteSpace=wrap;html=1;" vertex="1" parent="1">
          <mxGeometry x="290" y="290" width="120" height="60" as="geometry" />
        </mxCell>
        <mxCell id="Qj_qJi0HO7O66n5Au-XE-19" style="edgeStyle=orthogonalEdgeStyle;rounded=0;orthogonalLoop=1;jettySize=auto;html=1;exitX=1;exitY=0.5;exitDx=0;exitDy=0;" edge="1" parent="1" source="Qj_qJi0HO7O66n5Au-XE-16" target="Qj_qJi0HO7O66n5Au-XE-17">
          <mxGeometry relative="1" as="geometry" />
        </mxCell>
        <mxCell id="Qj_qJi0HO7O66n5Au-XE-16" value="generate stats" style="rounded=1;whiteSpace=wrap;html=1;" vertex="1" parent="1">
          <mxGeometry x="90" y="390" width="120" height="60" as="geometry" />
        </mxCell>
        <mxCell id="Qj_qJi0HO7O66n5Au-XE-18" value="" style="edgeStyle=orthogonalEdgeStyle;rounded=0;orthogonalLoop=1;jettySize=auto;html=1;" edge="1" parent="1" source="Qj_qJi0HO7O66n5Au-XE-17" target="Qj_qJi0HO7O66n5Au-XE-16">
          <mxGeometry relative="1" as="geometry" />
        </mxCell>
        <mxCell id="Qj_qJi0HO7O66n5Au-XE-17" value="generate item" style="rounded=1;whiteSpace=wrap;html=1;" vertex="1" parent="1">
          <mxGeometry x="240" y="390" width="120" height="60" as="geometry" />
        </mxCell>
        <mxCell id="Qj_qJi0HO7O66n5Au-XE-27" style="edgeStyle=orthogonalEdgeStyle;rounded=0;orthogonalLoop=1;jettySize=auto;html=1;exitX=0.5;exitY=0;exitDx=0;exitDy=0;exitPerimeter=0;entryX=1;entryY=0.75;entryDx=0;entryDy=0;" edge="1" parent="1" source="Qj_qJi0HO7O66n5Au-XE-21" target="Qj_qJi0HO7O66n5Au-XE-3">
          <mxGeometry relative="1" as="geometry" />
        </mxCell>
        <mxCell id="Qj_qJi0HO7O66n5Au-XE-21" value="item db" style="shape=cylinder3;whiteSpace=wrap;html=1;boundedLbl=1;backgroundOutline=1;size=15;" vertex="1" parent="1">
          <mxGeometry x="690" y="410" width="60" height="80" as="geometry" />
        </mxCell>
        <mxCell id="Qj_qJi0HO7O66n5Au-XE-26" style="edgeStyle=orthogonalEdgeStyle;rounded=0;orthogonalLoop=1;jettySize=auto;html=1;exitX=0.5;exitY=0;exitDx=0;exitDy=0;exitPerimeter=0;entryX=0.75;entryY=1;entryDx=0;entryDy=0;" edge="1" parent="1" source="Qj_qJi0HO7O66n5Au-XE-24" target="Qj_qJi0HO7O66n5Au-XE-3">
          <mxGeometry relative="1" as="geometry" />
        </mxCell>
        <mxCell id="Qj_qJi0HO7O66n5Au-XE-24" value="user db" style="shape=cylinder3;whiteSpace=wrap;html=1;boundedLbl=1;backgroundOutline=1;size=15;" vertex="1" parent="1">
          <mxGeometry x="540" y="480" width="60" height="80" as="geometry" />
        </mxCell>
      </root>
    </mxGraphModel>
  </diagram>
  <diagram id="HGoM6CInBLcIUwtQCTqh" name="search information">
    <mxGraphModel dx="1207" dy="753" grid="1" gridSize="10" guides="1" tooltips="1" connect="1" arrows="1" fold="1" page="1" pageScale="1" pageWidth="850" pageHeight="1100" math="0" shadow="0">
      <root>
        <mxCell id="Q9Hu0oUIPCJo9jvP5ASX-0" />
        <mxCell id="Q9Hu0oUIPCJo9jvP5ASX-1" parent="Q9Hu0oUIPCJo9jvP5ASX-0" />
        <mxCell id="7Pw1OdN75e6M5AjfvuBR-0" value="searchInformation" style="rounded=1;whiteSpace=wrap;html=1;" vertex="1" parent="Q9Hu0oUIPCJo9jvP5ASX-1">
          <mxGeometry x="360" y="120" width="120" height="60" as="geometry" />
        </mxCell>
      </root>
    </mxGraphModel>
  </diagram>
  <diagram id="NsPGFsuowY7SiWaO5VCg" name="get recipe book">
    <mxGraphModel dx="1207" dy="753" grid="1" gridSize="10" guides="1" tooltips="1" connect="1" arrows="1" fold="1" page="1" pageScale="1" pageWidth="850" pageHeight="1100" math="0" shadow="0">
      <root>
        <mxCell id="a7qTpIX7X1TzR79DICno-0" />
        <mxCell id="a7qTpIX7X1TzR79DICno-1" parent="a7qTpIX7X1TzR79DICno-0" />
        <mxCell id="u9XZnTXIsnELguYEQI71-0" value="getRecipeBook" style="rounded=1;whiteSpace=wrap;html=1;" vertex="1" parent="a7qTpIX7X1TzR79DICno-1">
          <mxGeometry x="380" y="150" width="120" height="60" as="geometry" />
        </mxCell>
      </root>
    </mxGraphModel>
  </diagram>
</mxfile>
